<svg xmlns="http://www.w3.org/2000/svg" width="32" height="32" viewBox="0 0 64 64"><path d="M57.2 68.4s-3.2-17-3.6-19.2.4-8 1.2-8.8c5.8-5.9 7.2-11.8 5.2-16.3-2.4-5.4-8.8-5.3-9-5.6s0-.6 0-2.4c0-4.3-2.1-11.3-10.4-12.4-8.8-1.1-11.8 5.6-12.2 5.6s-6.3-3.8-12.3-.9-4.6 11.6-4.6 11.7-.2.2-1.3.7-7.9 4.1-6.9 10.8c1.1 7.3 7.6 8.7 7.9 9.3s-.4 2 1.3 4.5c2 3.1 3 4.6 3.6 7.4.7 2.7 3.6 15.6 3.6 15.6h37.5z" fill-rule="evenodd" fill="#feb6c6"/><path d="M60 72s-3.6-18.8-4-21.3.4-8.9 1.3-9.8c6.4-6.6 8-13.1 5.8-18.1-2.7-6-9.8-5.9-10-6.2s0-.6 0-2.7c0-4.8-2.4-12.6-11.7-13.8-9.8-1.3-13.1 6.2-13.5 6.2s-7-4.2-13.7-1-5.1 13-5.2 13.2-.2.2-1.5.8-8.6 4.4-7.4 11.9c1.3 8.1 8.4 9.7 8.7 10.3s-.4 2.2 1.4 5c2.2 3.4 3.3 5.1 4 8.2.8 3 4.1 17.3 4.1 17.3H60zM30.4 17.4c7.5-1 16.9 3.8 17.5 9.5s-2.4 14.5-14.5 15.6-17.3-4.1-16.6-11.6 6.5-12.6 13.6-13.5zM5.5 30c.3 3 2.9 5.1 5.3 4.8a5.2 5.2 0 0 0 3.8-6.5c-.8-3.4-3.4-5-5.3-4.8S5.2 26.8 5.5 30zM16.7 8.8c2.6-1 6.5-1.2 7.5.9s1 4.5-3 6.5-5.7 1.3-6.9-.7a4.6 4.6 0 0 1 2.4-6.7zm26.6-3.5c2.8 1.5 4.5 4.1 3.6 6.1S43.7 15 38.8 13s-4.3-5.3-3.7-6.3a6.8 6.8 0 0 1 8.2-1.4zm16.7 20c.7 3 .1 6.1-1.3 6.7s-5.1.7-6.7-4a4.6 4.6 0 0 1 2.7-6.1 4.4 4.4 0 0 1 5.3 3.4z" fill="#fff" fill-rule="evenodd"/></svg>